<svg width="23" height="24" viewBox="0 0 23 24" fill="none" xmlns="http://www.w3.org/2000/svg">
<path d="M22.2921 10.2659C22.0751 10.0209 21.8611 9.78694 21.7141 9.64094L19.6141 7.50994C19.4393 7.34053 19.2052 7.24616 18.9617 7.24697C18.7183 7.24778 18.4848 7.3437 18.3111 7.51426C18.1374 7.68482 18.0373 7.91652 18.032 8.1599C18.0268 8.40328 18.1169 8.63906 18.2831 8.81694L20.3831 10.9539L20.3901 10.9629H12.6321V3.26294L14.7161 5.31094C14.894 5.47714 15.1298 5.56723 15.3731 5.56199C15.6165 5.55676 15.8482 5.4566 16.0188 5.28291C16.1893 5.10922 16.2853 4.87574 16.2861 4.6323C16.2869 4.38887 16.1925 4.15476 16.0231 3.97994L13.9001 1.88494C13.7481 1.73294 13.5151 1.51994 13.2711 1.30394C12.8445 0.927477 12.298 0.714832 11.7291 0.703938L11.7001 0.696938H11.6901C11.0945 0.690064 10.5175 0.903784 10.0701 1.29694C9.8251 1.51394 9.5911 1.72794 9.4451 1.87494L7.3141 3.97494C7.22007 4.05901 7.14405 4.16128 7.09066 4.27555C7.03727 4.38983 7.0076 4.51375 7.00346 4.63982C6.99931 4.76589 7.02077 4.89149 7.06654 5.00903C7.11231 5.12657 7.18144 5.23361 7.26975 5.32368C7.35805 5.41375 7.46371 5.48498 7.58032 5.53305C7.69694 5.58113 7.82209 5.60507 7.94822 5.60341C8.07435 5.60175 8.19883 5.57453 8.31414 5.52341C8.42945 5.47228 8.53319 5.3983 8.6191 5.30594L10.7561 3.20594L10.7651 3.19894V10.9639H3.0001L3.0141 10.9499L5.1091 8.81594C5.2002 8.72972 5.27297 8.62602 5.32308 8.51104C5.37318 8.39605 5.39959 8.27215 5.40072 8.14672C5.40185 8.0213 5.37768 7.89694 5.32965 7.78107C5.28163 7.6652 5.21073 7.56021 5.12121 7.47236C5.03168 7.38452 4.92536 7.31562 4.8086 7.2698C4.69184 7.22398 4.56705 7.20218 4.44167 7.20568C4.31629 7.20919 4.19291 7.23794 4.07889 7.29022C3.96488 7.3425 3.86258 7.41722 3.7781 7.50994L1.6891 9.63494C1.5371 9.78694 1.3231 10.0199 1.1071 10.2649C0.710931 10.7114 0.494623 11.2891 0.500102 11.8859V11.8959C0.500102 11.9049 0.500102 11.9139 0.506102 11.9229C0.516759 12.4922 0.72942 13.0391 1.1061 13.4659C1.3231 13.7109 1.5361 13.9439 1.6831 14.0909L3.7831 16.2229C3.95792 16.3923 4.19203 16.4867 4.43547 16.4859C4.6789 16.4851 4.91238 16.3892 5.08607 16.2186C5.25977 16.0481 5.35992 15.8164 5.36516 15.573C5.37039 15.3296 5.2803 15.0938 5.1141 14.9159L3.0611 12.8289H10.7611V20.5969L10.7471 20.5839L8.6191 18.4869C8.53296 18.3958 8.42931 18.3229 8.31436 18.2727C8.19941 18.2224 8.07551 18.1959 7.95008 18.1947C7.82464 18.1934 7.70024 18.2175 7.58432 18.2655C7.4684 18.3134 7.36334 18.3842 7.27542 18.4737C7.18749 18.5632 7.11851 18.6694 7.07261 18.7862C7.0267 18.9029 7.0048 19.0277 7.00822 19.1531C7.01165 19.2785 7.04032 19.4019 7.09254 19.516C7.14475 19.63 7.21943 19.7324 7.3121 19.8169L9.4381 21.9069C9.5901 22.0589 9.8231 22.2719 10.0681 22.4889C10.5095 22.8796 11.0786 23.0953 11.6681 23.0953C12.2576 23.0953 12.8267 22.8796 13.2681 22.4889C13.5131 22.2719 13.7451 22.0599 13.8921 21.9109L16.0241 19.8169C16.1168 19.7324 16.1915 19.63 16.2437 19.516C16.2959 19.4019 16.3246 19.2785 16.328 19.1531C16.3314 19.0277 16.3095 18.9029 16.2636 18.7862C16.2177 18.6694 16.1487 18.5632 16.0608 18.4737C15.9729 18.3842 15.8678 18.3134 15.7519 18.2655C15.636 18.2175 15.5116 18.1934 15.3861 18.1947C15.2607 18.1959 15.1368 18.2224 15.0218 18.2727C14.9069 18.3229 14.8032 18.3958 14.7171 18.4869L12.6301 20.5349V12.8349H20.3301L18.2771 14.9189C18.1877 15.0056 18.1166 15.1092 18.0678 15.2237C18.0191 15.3383 17.9938 15.4614 17.9934 15.5859C17.993 15.7103 18.0175 15.8336 18.0654 15.9485C18.1134 16.0634 18.1839 16.1675 18.2727 16.2547C18.3615 16.3419 18.4668 16.4104 18.5826 16.4563C18.6983 16.5022 18.822 16.5244 18.9464 16.5217C19.0709 16.5191 19.1935 16.4915 19.3072 16.4407C19.4208 16.3899 19.5231 16.3169 19.6081 16.2259L21.7001 14.0969C21.8521 13.9449 22.0651 13.7119 22.2821 13.4669C22.6732 13.0261 22.8897 12.4574 22.8908 11.8681C22.8919 11.2787 22.6776 10.7093 22.2881 10.2669L22.2921 10.2659Z" fill="white"/>
</svg>
