<svg width="19" height="20" viewBox="0 0 19 20" fill="none" xmlns="http://www.w3.org/2000/svg">
<path d="M8.70831 3.33333H3.16665C2.74672 3.33333 2.34399 3.50893 2.04706 3.82149C1.75013 4.13405 1.58331 4.55797 1.58331 5V16.6667C1.58331 17.1087 1.75013 17.5326 2.04706 17.8452C2.34399 18.1577 2.74672 18.3333 3.16665 18.3333H14.25C14.6699 18.3333 15.0726 18.1577 15.3696 17.8452C15.6665 17.5326 15.8333 17.1087 15.8333 16.6667V10.8333" stroke="#EE8643" stroke-width="2" stroke-linecap="round" stroke-linejoin="round"/>
<path d="M14.6458 2.08333C14.9608 1.75181 15.3879 1.56557 15.8333 1.56557C16.2787 1.56557 16.7059 1.75181 17.0208 2.08333C17.3358 2.41485 17.5127 2.86449 17.5127 3.33333C17.5127 3.80217 17.3358 4.25181 17.0208 4.58333L9.49998 12.5L6.33331 13.3333L7.12498 10L14.6458 2.08333Z" stroke="#EE8643" stroke-width="2" stroke-linecap="round" stroke-linejoin="round"/>
</svg>
