<svg width="24" height="23" viewBox="0 0 24 23" fill="none" xmlns="http://www.w3.org/2000/svg">
<path d="M19.9401 3.39806C17.5991 1.33211 14.545 0.259966 11.4263 0.409243C8.30757 0.558521 5.36984 1.91747 3.23681 4.19757C1.10378 6.47766 -0.0565655 9.49935 0.00212251 12.6211C0.0608105 15.7428 1.33391 18.7187 3.55113 20.9171C4.48769 21.8358 5.74817 22.3491 7.06013 22.3461H16.8271C18.069 22.3629 19.2698 21.9018 20.1811 21.0581C21.3801 19.9135 22.33 18.5339 22.9717 17.0055C23.6133 15.4772 23.9328 13.8329 23.9101 12.1755C23.8875 10.5181 23.5233 8.88318 22.8402 7.37291C22.1571 5.86264 21.1699 4.5095 19.9401 3.39806ZM19.3591 15.5351C19.2542 15.7784 19.057 15.9702 18.8109 16.0682C18.5647 16.1663 18.2896 16.1626 18.0461 16.0581L13.1291 13.9461C12.7767 14.2099 12.3471 14.3502 11.9069 14.345C11.4667 14.3398 11.0404 14.1896 10.6943 13.9175C10.3482 13.6454 10.1016 13.2667 9.99258 12.8402C9.88362 12.4136 9.91844 11.963 10.0917 11.5583C10.2649 11.1535 10.5668 10.8172 10.9506 10.6016C11.3344 10.3859 11.7786 10.3029 12.2144 10.3654C12.6502 10.428 13.0532 10.6325 13.3609 10.9474C13.6685 11.2623 13.8637 11.6699 13.9161 12.1071L18.8311 14.2211C18.9518 14.273 19.061 14.3482 19.1525 14.4423C19.2441 14.5365 19.3162 14.6477 19.3648 14.7697C19.4133 14.8918 19.4374 15.0221 19.4356 15.1535C19.4338 15.2848 19.4061 15.4144 19.3541 15.5351H19.3591ZM20.0021 12.3461C19.7391 12.3789 19.4737 12.3059 19.2644 12.1431C19.0552 11.9803 18.9191 11.7411 18.8861 11.4781C18.6968 9.93227 17.9922 8.49533 16.8861 7.39906C15.5733 6.08624 13.7927 5.3487 11.9361 5.3487C10.0795 5.3487 8.29895 6.08624 6.98613 7.39906C5.67331 8.71188 4.93578 10.4924 4.93578 12.3491C4.93578 14.2057 5.67331 15.9862 6.98613 17.2991C7.08613 17.3991 7.19813 17.4991 7.30713 17.5991C7.50605 17.7746 7.62707 18.022 7.64357 18.2868C7.66007 18.5516 7.57071 18.8121 7.39513 19.0111C7.21956 19.21 6.97216 19.331 6.70736 19.3475C6.44256 19.364 6.18205 19.2746 5.98313 19.0991C5.84213 18.9751 5.70613 18.8461 5.57213 18.7121C4.5608 17.6985 3.80589 16.4583 3.3701 15.0944C2.93431 13.7305 2.83022 12.2823 3.06647 10.8701C3.30272 9.45792 3.8725 8.12247 4.72848 6.97469C5.58445 5.8269 6.70193 4.89991 7.98809 4.2707C9.27424 3.64149 10.692 3.32823 12.1235 3.35693C13.555 3.38563 14.9591 3.75546 16.219 4.43571C17.4789 5.11596 18.5583 6.08699 19.3676 7.26816C20.1769 8.44932 20.6927 9.80653 20.8721 11.2271C20.8888 11.3577 20.8795 11.4904 20.8447 11.6174C20.81 11.7444 20.7505 11.8633 20.6696 11.9673C20.5888 12.0713 20.4882 12.1583 20.3737 12.2233C20.2591 12.2883 20.1329 12.33 20.0021 12.3461Z" fill="#0C0C3D"/>
</svg>
