<svg width="23" height="22" viewBox="0 0 23 22" fill="none" xmlns="http://www.w3.org/2000/svg">
<path d="M1.83447 4.35386H4.34247C4.53909 5.07757 4.96841 5.71646 5.56417 6.17196C6.15993 6.62745 6.88903 6.87424 7.63897 6.87424C8.38891 6.87424 9.11801 6.62745 9.71377 6.17196C10.3095 5.71646 10.7388 5.07757 10.9355 4.35386H21.9925C22.2355 4.35386 22.4687 4.2573 22.6405 4.08543C22.8124 3.91355 22.909 3.68043 22.909 3.43736C22.909 3.19429 22.8124 2.96118 22.6405 2.7893C22.4687 2.61742 22.2355 2.52086 21.9925 2.52086H10.9355C10.7388 1.79716 10.3095 1.15827 9.71377 0.702772C9.11801 0.247276 8.38891 0.000488281 7.63897 0.000488281C6.88903 0.000488281 6.15993 0.247276 5.56417 0.702772C4.96841 1.15827 4.53909 1.79716 4.34247 2.52086H1.83447C1.5914 2.52086 1.35828 2.61742 1.18641 2.7893C1.01453 2.96118 0.917969 3.19429 0.917969 3.43736C0.917969 3.68043 1.01453 3.91355 1.18641 4.08543C1.35828 4.2573 1.5914 4.35386 1.83447 4.35386Z" fill="#00D3D3"/>
<path d="M21.9925 10.0799H19.4925C19.2962 9.35605 18.8671 8.71692 18.2714 8.26122C17.6757 7.80551 16.9465 7.55859 16.1965 7.55859C15.4464 7.55859 14.7173 7.80551 14.1216 8.26122C13.5259 8.71692 13.0967 9.35605 12.9005 10.0799H1.83447C1.5914 10.0799 1.35828 10.1765 1.18641 10.3484C1.01453 10.5203 0.917969 10.7534 0.917969 10.9964C0.917969 11.2395 1.01453 11.4726 1.18641 11.6445C1.35828 11.8164 1.5914 11.9129 1.83447 11.9129H12.8925C13.0887 12.6368 13.5179 13.276 14.1136 13.7317C14.7093 14.1874 15.4384 14.4343 16.1885 14.4343C16.9385 14.4343 17.6677 14.1874 18.2634 13.7317C18.8591 13.276 19.2882 12.6368 19.4845 11.9129H21.9925C22.2355 11.9129 22.4687 11.8164 22.6405 11.6445C22.8124 11.4726 22.909 11.2395 22.909 10.9964C22.909 10.7534 22.8124 10.5203 22.6405 10.3484C22.4687 10.1765 22.2355 10.0799 21.9925 10.0799Z" fill="#00D3D3"/>
<path d="M21.9925 17.6407H10.9355C10.7388 16.917 10.3095 16.2782 9.71377 15.8227C9.11801 15.3672 8.38891 15.1204 7.63897 15.1204C6.88903 15.1204 6.15993 15.3672 5.56417 15.8227C4.96841 16.2782 4.53909 16.917 4.34247 17.6407H1.83447C1.5914 17.6407 1.35828 17.7373 1.18641 17.9092C1.01453 18.0811 0.917969 18.3142 0.917969 18.5573C0.917969 18.8003 1.01453 19.0334 1.18641 19.2053C1.35828 19.3772 1.5914 19.4738 1.83447 19.4738H4.34247C4.53909 20.1975 4.96841 20.8363 5.56417 21.2918C6.15993 21.7473 6.88903 21.9941 7.63897 21.9941C8.38891 21.9941 9.11801 21.7473 9.71377 21.2918C10.3095 20.8363 10.7388 20.1975 10.9355 19.4738H21.9925C22.2355 19.4738 22.4687 19.3772 22.6405 19.2053C22.8124 19.0334 22.909 18.8003 22.909 18.5573C22.909 18.3142 22.8124 18.0811 22.6405 17.9092C22.4687 17.7373 22.2355 17.6407 21.9925 17.6407Z" fill="#00D3D3"/>
</svg>
