<svg width="17" height="19" viewBox="0 0 17 19" fill="none" xmlns="http://www.w3.org/2000/svg">
<path d="M10.0222 18.288C9.86535 18.288 9.71271 18.2371 9.58722 18.143L6.68722 15.969C6.59717 15.9015 6.52409 15.8139 6.47376 15.7132C6.42342 15.6126 6.39722 15.5015 6.39722 15.389V11.316L1.31522 5.596C0.954339 5.18865 0.71875 4.68578 0.636755 4.14779C0.55476 3.60979 0.629846 3.05957 0.852993 2.56322C1.07614 2.06687 1.43786 1.6455 1.89468 1.34975C2.35151 1.054 2.88401 0.896435 3.42822 0.895996L13.7182 0.895996C14.2623 0.896819 14.7945 1.05466 15.251 1.35056C15.7075 1.64646 16.069 2.06785 16.2919 2.56413C16.5148 3.0604 16.5897 3.61047 16.5076 4.14828C16.4255 4.68609 16.19 5.18878 15.8292 5.596L10.7472 11.316V17.562C10.7473 17.6573 10.7287 17.7517 10.6923 17.8397C10.6559 17.9278 10.6026 18.0079 10.5352 18.0753C10.4679 18.1427 10.3879 18.1962 10.2999 18.2327C10.2119 18.2692 10.1175 18.288 10.0222 18.288Z" fill="#0C0C3D"/>
</svg>
