<svg width="48" height="48" viewBox="0 0 48 48" fill="none" xmlns="http://www.w3.org/2000/svg">
<path d="M37.399 33.9089C35.3427 33.1119 33.3984 32.0514 31.615 30.7539C30.2014 29.5812 28.7195 28.4933 27.177 27.4959C29.999 26.5539 33.269 26.0319 35.915 24.5189C37.7454 23.6653 39.2963 22.3104 40.388 20.6113C41.4797 18.9122 42.0674 16.9385 42.083 14.9189C42.0691 14.5431 42.0236 14.1691 41.947 13.8009C41.8123 13.0703 41.4197 12.4124 40.8406 11.9469C40.2615 11.4814 39.5345 11.2394 38.792 11.2649C34.459 11.6739 31.136 15.6339 28.382 18.6719C29.467 16.1109 29.482 12.5409 26.895 10.8859C24.834 9.51693 22.053 9.83693 19.778 10.2219C15.35 11.1219 4.50004 14.5219 3.31104 19.2389C3.3777 19.3056 3.56771 19.2463 3.88104 19.0609C4.38104 18.7459 5.02504 18.3549 5.63904 17.9999C7.33904 17.0379 8.95704 15.9829 10.724 15.0999C14.318 13.2399 23.809 9.48393 27.33 12.0079C29.451 15.3989 25.467 21.8489 23.316 24.6269C18.6817 24.7556 14.0724 25.3543 9.55904 26.4139C9.87804 25.9999 10.715 25.8959 11.341 25.6979C13.0025 25.3813 14.6447 24.9713 16.26 24.4699C15.499 24.4173 14.7344 24.4776 13.991 24.6489C11.827 24.9669 9.13804 25.4419 7.00504 25.8109C5.98804 26.0599 5.65704 25.8619 4.97304 26.3109C4.851 26.4448 4.77582 26.6148 4.75887 26.7952C4.74191 26.9756 4.7841 27.1566 4.87904 27.3109C5.24504 28.0699 6.27903 27.9349 6.97903 27.8739C9.64593 27.4483 12.2842 26.8595 14.879 26.1109C17.4948 25.5531 20.1605 25.2623 22.835 25.2429C19.8605 28.9685 16.6803 32.5251 13.309 35.8959C13.177 35.9841 13.0636 36.0974 12.9753 36.2294C12.8871 36.3614 12.8257 36.5095 12.7947 36.6652C12.7637 36.821 12.7636 36.9813 12.7946 37.137C12.8255 37.2928 12.8868 37.4409 12.975 37.5729C13.1269 37.8004 13.3515 37.9697 13.612 38.0529C14.944 37.3679 15.673 36.2349 16.754 35.0799C19.5611 31.998 22.1875 28.7563 24.62 25.3709C25.38 25.4889 26.573 25.9369 27.044 25.6499C27.128 24.9449 25.559 24.7889 25.071 24.7319C25.8401 23.608 26.5507 22.4451 27.2 21.2479C28.0307 20.2659 28.8747 19.3246 29.732 18.4239C32.043 16.1049 34.232 13.8729 37.196 12.5139C42.42 10.5779 40.445 18.8139 38.465 20.8839C36.847 22.8035 34.6926 24.1963 32.278 24.8839C30.289 25.4609 28.54 26.1079 26.478 26.6929C25.9888 26.7392 25.5132 26.8805 25.078 27.1089C24.823 27.3219 24.591 27.7269 24.862 28.0169C24.927 28.1349 25.022 28.3399 25.185 28.2819C27.754 29.9359 31.311 32.0959 33.957 33.7449C32.557 32.5139 30.957 31.6449 29.437 30.5029C28.914 30.0789 28.059 29.5919 27.911 29.0809C29.426 30.1419 31.155 31.3079 32.777 32.3639C34.644 33.5809 38.899 36.1589 39.909 32.7699C39.279 32.1779 40.073 34.8719 37.399 33.9089ZM10.959 14.3879C9.55905 15.3109 7.87604 16.0589 6.51704 17.0189C7.83675 15.9616 9.28079 15.0697 10.817 14.3629C11 14.2629 11.156 14.2129 10.96 14.3879H10.959ZM20.416 11.2949C19.7778 11.4665 19.125 11.578 18.466 11.6279C18.425 11.6589 18.366 11.6509 18.326 11.6809C18.01 11.7319 17.67 11.8569 17.351 11.9359C16.981 12.1308 16.5907 12.2844 16.187 12.3939C15.6438 12.5914 15.0883 12.7535 14.524 12.8789C13.861 13.2019 13.1787 13.4838 12.481 13.7229C12.2752 13.8778 12.0406 13.9903 11.791 14.0539C10.451 14.4159 13.484 12.9889 13.666 12.9289C14.71 12.5159 15.809 12.1749 16.876 11.8549C18.0068 11.5269 19.1694 11.3211 20.344 11.2409C20.389 11.2549 20.639 11.2069 20.415 11.2929L20.416 11.2949ZM16.707 25.3439C16.558 25.6239 16.184 25.5829 15.907 25.6369C15.579 25.6449 15.275 25.9549 14.945 25.8029C14.917 25.8029 14.902 25.7739 14.873 25.7769C14.347 25.6069 16.963 25.1829 16.701 25.3419L16.707 25.3439ZM19.585 25.1159C19.124 25.2134 18.6558 25.2733 18.185 25.2949C17.885 25.3379 17.537 25.5269 17.234 25.4489C16.663 25.0329 18.408 25.0139 18.589 25.0649C18.9217 25.0398 19.2555 25.0315 19.589 25.0399C19.584 25.0799 19.657 25.0799 19.589 25.1149L19.585 25.1159ZM22.625 25.0399C22.2464 25.084 21.8651 25.1011 21.484 25.0909C21.41 25.1039 20.923 25.1709 20.961 25.0649C21.1424 24.9904 21.3352 24.9471 21.531 24.9369C21.656 24.6369 21.981 24.9799 22.208 24.9369C22.248 24.9369 22.236 24.9539 22.174 24.9879C22.242 24.9969 22.602 24.9649 22.625 25.0139C22.6404 25.0306 22.6404 25.0389 22.625 25.0389V25.0399ZM27.876 17.6069C27.854 17.5179 28.432 16.4579 28.376 16.7889C28.391 16.8069 28.3992 16.8295 28.3992 16.8529C28.3992 16.8763 28.391 16.899 28.376 16.9169C28.3699 17.2325 28.3052 17.5441 28.185 17.8359C28.146 17.9359 28.001 18.0999 27.923 17.9359C27.845 17.7249 27.812 17.8829 27.872 17.6049L27.876 17.6069ZM25.668 22.7919C25.6587 22.8013 25.6474 22.8085 25.6349 22.813C25.6225 22.8175 25.6092 22.8192 25.596 22.8179C25.57 22.7969 25.572 22.7549 25.573 22.7249L25.685 22.7379C25.6724 22.7531 25.6657 22.7722 25.666 22.7919H25.668ZM25.752 22.4419C25.684 22.5219 25.82 22.2539 25.88 22.2999C25.836 22.3439 25.792 22.3939 25.749 22.4409L25.752 22.4419ZM26.052 22.7149C26.031 22.7256 26.0076 22.7308 25.984 22.7299L26.031 22.6729C26.05 22.7009 26.058 22.7149 26.049 22.7149H26.052ZM26.51 21.5969C26.41 21.7039 26.323 21.8039 26.229 21.9109C26.2246 21.8942 26.2246 21.8766 26.229 21.8599C26.2361 21.8396 26.2401 21.8184 26.241 21.7969C26.2509 21.7831 26.2568 21.7669 26.258 21.7499C26.448 21.5209 26.489 21.4109 26.658 21.2169C26.7 21.2389 26.75 21.2509 26.791 21.2769C26.7 21.3769 26.609 21.4849 26.508 21.5969H26.51ZM27.237 20.7509C27.124 20.8939 27.009 21.0239 26.877 21.1779C26.843 21.1439 26.802 21.0969 26.777 21.0699C26.913 20.9039 27.037 20.7199 27.186 20.5699C27.2151 20.5897 27.2362 20.6192 27.2453 20.6532C27.2545 20.6871 27.2512 20.7232 27.236 20.7549L27.237 20.7509ZM27.119 20.1759C27.134 20.1323 27.1583 20.0924 27.19 20.0589C27.2178 20.0134 27.2571 19.9762 27.304 19.9509C27.24 20.0249 27.178 20.1009 27.117 20.1759H27.119ZM27.358 19.4969C27.3128 19.4401 27.2835 19.3723 27.2731 19.3004C27.2627 19.2285 27.2717 19.1552 27.299 19.0879C27.446 18.7089 27.632 19.1459 27.499 18.4739C27.888 18.3549 27.538 18.2739 27.713 18.0899C27.7727 18.0605 27.8416 18.056 27.9046 18.0774C27.9676 18.0988 28.0196 18.1443 28.049 18.2039C28.059 18.2245 28.0661 18.2464 28.07 18.2689C28.064 18.3549 28.228 18.4259 28.12 18.4979C28.148 19.0589 27.735 19.4209 27.406 19.8279C27.4176 19.7151 27.4 19.6011 27.355 19.4969H27.358ZM27.465 20.2739C27.504 20.2439 27.526 20.2319 27.533 20.2399C27.5103 20.2538 27.4862 20.2652 27.461 20.2739H27.465ZM31.229 16.2739C31.204 16.3629 31.014 16.5279 30.948 16.5879C30.934 16.5879 30.916 16.6069 30.894 16.6379C30.869 16.6379 30.86 16.6679 30.835 16.6689C30.5665 16.8713 30.3174 17.0983 30.091 17.3469C29.9056 17.6381 29.7026 17.9176 29.483 18.1839C29.336 18.3779 29.083 18.5289 28.923 18.7089C28.7287 19.0233 28.4884 19.3068 28.21 19.5499C28.103 19.6889 27.987 19.9249 27.819 20.0149C27.8174 20.0145 27.8157 20.0145 27.814 20.0149C28.2817 19.1185 28.897 18.3071 29.634 17.6149C30.0622 17.1453 30.5373 16.7207 31.052 16.3479C31.083 16.3359 31.33 16.1399 31.229 16.2749V16.2739ZM36.598 23.5059L36.698 23.3669C36.498 23.1119 36.729 23.2189 36.882 23.2309C36.982 23.2139 37.021 23.2259 37.015 23.2669L37.315 23.1529C37.343 23.1483 37.3307 23.1743 37.278 23.2309C37.0932 23.448 36.8412 23.5972 36.562 23.6549C36.544 23.6039 36.53 23.5289 36.594 23.5059H36.598ZM35.221 23.9569C35.234 23.9019 35.221 23.7149 35.312 23.7569C35.448 23.7749 35.532 23.7289 35.573 23.9119C35.7517 23.8736 35.9255 23.8153 36.091 23.7379L36.074 23.7589C35.8692 23.9317 35.6497 24.0863 35.418 24.2209C35.309 24.3301 35.1935 24.4327 35.072 24.5279C34.985 24.6159 34.872 24.5069 34.822 24.4279C34.522 24.1819 35.009 23.9509 35.222 23.9509L35.221 23.9569ZM34.17 24.4499C34.27 24.3499 34.426 24.4439 34.52 24.3359C34.593 24.2679 34.554 24.5359 34.576 24.5889C34.582 24.6229 34.546 24.6569 34.469 24.6989C34.377 24.7769 34.227 24.7329 34.157 24.8349C34.087 24.9369 34.021 25.0049 33.857 24.9289C33.457 24.6149 33.923 24.5559 34.167 24.4519L34.17 24.4499ZM30.59 25.7359C30.658 25.6299 30.902 25.6939 30.99 25.5519C31.218 25.3599 31.526 25.3949 31.79 25.2859C32.3049 24.9899 32.8891 24.8356 33.483 24.8389C33.529 24.8569 33.542 24.8949 33.525 24.9519C33.309 25.3949 32.672 24.9149 32.375 25.6649C32.3019 25.7596 32.203 25.8313 32.0902 25.8713C31.9775 25.9114 31.8556 25.9182 31.739 25.8909C31.518 25.7789 31.385 26.0909 31.208 26.1599C30.708 25.9949 30.921 26.2729 30.547 26.2599C30.189 26.0509 30.492 25.9489 30.586 25.7369L30.59 25.7359ZM29.362 26.2519C29.519 26.1419 30.317 25.7779 30.214 26.1779C30.286 26.6049 29.123 26.3259 29.359 26.2519H29.362ZM31.737 31.4189C31.3675 31.1872 31.0116 30.9345 30.671 30.6619C30.657 30.6619 30.606 30.6129 30.516 30.5079C30.482 30.4739 30.499 30.4579 30.571 30.4589C30.8 30.3819 30.955 30.6169 31.108 30.7439C31.323 30.9859 31.759 31.1049 31.824 31.4229C31.824 31.4619 31.799 31.4609 31.735 31.4229L31.737 31.4189ZM33.449 32.4439C33.354 32.4439 33.21 32.3169 33.123 32.2819C33.0599 32.2653 32.9988 32.2415 32.941 32.2109L32.9 32.2179C32.774 32.1559 32.607 32.0359 32.494 31.9689C32.4897 31.9702 32.485 31.9698 32.4809 31.9678C32.4768 31.9657 32.4736 31.9622 32.472 31.9579V31.9529C32.4653 31.9494 32.4594 31.9446 32.4546 31.9388C32.4497 31.933 32.4462 31.9262 32.444 31.9189C32.2829 31.8605 32.1493 31.7443 32.069 31.5929C32.0746 31.5818 32.083 31.5722 32.0933 31.5652C32.1037 31.5582 32.1156 31.554 32.128 31.5529C32.177 31.5759 32.221 31.5259 32.271 31.5279C32.4997 31.6609 32.718 31.811 32.924 31.9769C33.0448 32.0816 33.1815 32.1664 33.329 32.2279C33.484 32.3279 33.738 32.5029 33.884 32.6109C33.922 32.7499 33.512 32.4819 33.449 32.4449V32.4439ZM35.549 33.5569C35.43 33.5569 35.303 33.5569 35.31 33.3979C35.2114 33.3297 35.1089 33.2673 35.003 33.2109C34.969 33.1819 34.887 33.0359 35.003 33.1109C35.2655 33.2164 35.5207 33.339 35.767 33.4779C35.9224 33.5073 36.0667 33.5789 36.184 33.6849C36.0518 33.6702 35.9234 33.6315 35.805 33.5709C35.933 33.6839 35.593 33.5209 35.542 33.5589L35.549 33.5569Z" fill="white"/>
<path d="M23.885 47.7039C17.5573 47.7002 11.4892 45.1873 7.01152 40.7161C2.53383 36.245 0.0119956 30.1807 -0.000976562 23.8529C0.0125244 17.5255 2.53459 11.4617 7.01222 6.99096C11.4899 2.52026 17.5576 0.00759829 23.885 0.00390625C30.2128 0.0075996 36.2808 2.52054 40.7585 6.99166C45.2362 11.4628 47.7581 17.5272 47.771 23.8549C47.7575 30.1823 45.2355 36.2462 40.7578 40.7169C36.2802 45.1876 30.2124 47.7002 23.885 47.7039ZM23.885 1.18691C17.8717 1.18954 12.1048 3.57705 7.84933 7.82577C3.59386 12.0745 1.19721 17.8375 1.18503 23.8509C1.19641 29.8647 3.59276 35.6284 7.84834 39.8776C12.1039 44.1268 17.8712 46.5145 23.885 46.5169C29.899 46.5145 35.6665 44.1267 39.9221 39.8773C44.1777 35.6278 46.5739 29.8639 46.585 23.8499C46.5731 17.8364 44.1766 12.0731 39.9211 7.82412C35.6656 3.57519 29.8986 1.18754 23.885 1.18491V1.18691Z" fill="white"/>
<path d="M43.2921 39.302C44.9075 39.302 46.2171 37.9754 46.2171 36.339C46.2171 34.7026 44.9075 33.376 43.2921 33.376C41.6766 33.376 40.3671 34.7026 40.3671 36.339C40.3671 37.9754 41.6766 39.302 43.2921 39.302Z" fill="#EE8643"/>
</svg>
