<svg width="31" height="25" viewBox="0 0 31 25" fill="none" xmlns="http://www.w3.org/2000/svg">
<path d="M25.667 18.0012L24.61 19.4102L26.019 20.4672H22.84C22.6458 19.7124 22.2066 19.0434 21.5913 18.5651C20.976 18.0868 20.2194 17.8262 19.44 17.8242H10.63C9.85064 17.8262 9.09398 18.0868 8.47867 18.5651C7.86335 19.0434 7.42417 19.7124 7.23 20.4672H5.286C4.35138 20.4672 3.45503 20.0959 2.79416 19.435C2.13328 18.7741 1.762 17.8778 1.762 16.9432C1.762 16.0085 2.13328 15.1122 2.79416 14.4513C3.45503 13.7904 4.35138 13.4192 5.286 13.4192H7.232C7.42617 14.174 7.86535 14.843 8.48067 15.3213C9.09598 15.7996 9.85264 16.0602 10.632 16.0622H19.442C20.2214 16.0602 20.978 15.7996 21.5933 15.3213C22.2087 14.843 22.6478 14.174 22.842 13.4192H24.788C26.1899 13.4192 27.5344 12.8623 28.5258 11.8709C29.5171 10.8796 30.074 9.53511 30.074 8.13317C30.074 6.73124 29.5171 5.38672 28.5258 4.39541C27.5344 3.40409 26.1899 2.84717 24.788 2.84717H22.84C22.6464 2.092 22.2077 1.42244 21.5925 0.94356C20.9773 0.464676 20.2206 0.203558 19.441 0.201172L10.631 0.201172C9.85164 0.203165 9.09498 0.463751 8.47967 0.942069C7.86435 1.42039 7.42517 2.08939 7.231 2.84417H6.461L3.171 0.378172L2.115 1.78717L3.524 2.84417H0V4.60617H3.524L2.115 5.66417L3.171 7.07317L6.461 4.60617H7.232C7.42617 5.36096 7.86535 6.02996 8.48067 6.50828C9.09598 6.98659 9.85264 7.24718 10.632 7.24917H19.442C20.2214 7.24718 20.978 6.98659 21.5933 6.50828C22.2087 6.02996 22.6478 5.36096 22.842 4.60617H24.788C25.2508 4.60617 25.709 4.69732 26.1366 4.87442C26.5641 5.05152 26.9526 5.31109 27.2798 5.63833C27.6071 5.96556 27.8667 6.35404 28.0438 6.7816C28.2208 7.20915 28.312 7.66739 28.312 8.13017C28.312 8.59295 28.2208 9.0512 28.0438 9.47875C27.8667 9.9063 27.6071 10.2948 27.2798 10.622C26.9526 10.9492 26.5641 11.2088 26.1366 11.3859C25.709 11.563 25.2508 11.6542 24.788 11.6542H22.84C22.6458 10.8994 22.2066 10.2304 21.5913 9.75207C20.976 9.27375 20.2194 9.01317 19.44 9.01117H10.63C9.85064 9.01317 9.09398 9.27375 8.47867 9.75207C7.86335 10.2304 7.42417 10.8994 7.23 11.6542H5.286C3.88407 11.6542 2.53955 12.2111 1.54823 13.2024C0.556916 14.1937 0 15.5382 0 16.9402C0 18.3421 0.556916 19.6866 1.54823 20.6779C2.53955 21.6693 3.88407 22.2262 5.286 22.2262H7.232C7.42617 22.981 7.86535 23.65 8.48067 24.1283C9.09598 24.6066 9.85264 24.8672 10.632 24.8692H19.442C20.2214 24.8672 20.978 24.6066 21.5933 24.1283C22.2087 23.65 22.6478 22.981 22.842 22.2262H26.022L24.613 23.2832L25.67 24.6922L30.075 21.3442L25.667 18.0012Z" fill="#EE8643"/>
</svg>
