<svg width="21" height="24" viewBox="0 0 21 24" fill="none" xmlns="http://www.w3.org/2000/svg">
<path d="M1.22404 17.4973C1.59482 18.1407 2.206 18.6104 2.92314 18.8032C3.64028 18.996 4.40463 18.896 5.04804 18.5253L5.46304 18.2853C6.24704 18.9559 7.14815 19.476 8.12105 19.8193V20.2973C8.12105 21.0399 8.41604 21.7521 8.94114 22.2772C9.46625 22.8023 10.1784 23.0973 10.921 23.0973C11.6637 23.0973 12.3758 22.8023 12.9009 22.2772C13.426 21.7521 13.721 21.0399 13.721 20.2973V19.8173C14.6941 19.4734 15.5952 18.9526 16.379 18.2813L16.796 18.5223C17.4396 18.8936 18.2043 18.994 18.9219 18.8015C19.2772 18.7062 19.6103 18.5418 19.9021 18.3178C20.1939 18.0937 20.4387 17.8144 20.6225 17.4958C20.8064 17.1771 20.9257 16.8254 20.9736 16.4606C21.0215 16.0959 20.9971 15.7252 20.9018 15.3699C20.8065 15.0146 20.6421 14.6815 20.4181 14.3897C20.194 14.0979 19.9147 13.8531 19.596 13.6693L19.186 13.4293C19.3725 12.4144 19.3725 11.3741 19.186 10.3593L19.6 10.1203C19.9187 9.93642 20.198 9.6916 20.4221 9.3998C20.6461 9.108 20.8105 8.77493 20.9058 8.41961C21.0011 8.06429 21.0255 7.69367 20.9776 7.32892C20.9297 6.96416 20.8104 6.61242 20.6265 6.29377C20.4427 5.97511 20.1979 5.69579 19.9061 5.47175C19.6143 5.24771 19.2812 5.08334 18.9259 4.98802C18.2083 4.79552 17.4436 4.89596 16.8 5.26727L16.385 5.50727C15.6002 4.83749 14.6984 4.31845 13.725 3.97627V3.49727C13.725 2.75466 13.43 2.04247 12.9049 1.51737C12.3798 0.992265 11.6676 0.697266 10.925 0.697266C10.1824 0.697266 9.47025 0.992265 8.94515 1.51737C8.42004 2.04247 8.12504 2.75466 8.12504 3.49727V3.97627C7.15199 4.32016 6.25086 4.84091 5.46704 5.51227L5.05004 5.27027C4.73139 5.08641 4.37965 4.96713 4.01489 4.91922C3.65014 4.8713 3.27952 4.8957 2.9242 4.99102C2.56888 5.08634 2.23581 5.25071 1.94401 5.47475C1.65221 5.69879 1.4074 5.97811 1.22354 6.29677C1.03969 6.61542 0.920406 6.96716 0.872493 7.33192C0.824581 7.69667 0.84898 8.06729 0.944299 8.42261C1.03962 8.77793 1.20399 9.111 1.42803 9.4028C1.65207 9.6946 1.93139 9.93941 2.25004 10.1233L2.66404 10.3623C2.47756 11.3771 2.47756 12.4174 2.66404 13.4323L2.25004 13.6713C1.60744 14.0433 1.13859 14.655 0.946258 15.3722C0.75393 16.0894 0.853826 16.8536 1.22404 17.4973ZM10.924 8.16427C11.6621 8.16525 12.3834 8.38503 12.9966 8.79582C13.6099 9.20661 14.0875 9.78997 14.3693 10.4722C14.6511 11.1544 14.7243 11.9048 14.5797 12.6286C14.4351 13.3524 14.0792 14.0171 13.5569 14.5387C13.0346 15.0602 12.3695 15.4153 11.6455 15.5589C10.9215 15.7025 10.1712 15.6283 9.48934 15.3456C8.80751 15.0629 8.22479 14.5845 7.81482 13.9707C7.40485 13.3569 7.18604 12.6354 7.18604 11.8973C7.18591 11.4066 7.2825 10.9208 7.4703 10.4675C7.65809 10.0142 7.9334 9.60237 8.28047 9.25557C8.62755 8.90878 9.03959 8.6338 9.49303 8.44637C9.94646 8.25894 10.4324 8.16274 10.923 8.16327L10.924 8.16427Z" fill="white"/>
</svg>
