<svg width="23" height="23" viewBox="0 0 23 23" fill="none" xmlns="http://www.w3.org/2000/svg">
<path d="M1.83447 5.25181H4.34247C4.53909 5.97552 4.96841 6.61441 5.56417 7.0699C6.15993 7.5254 6.88903 7.77219 7.63897 7.77219C8.38891 7.77219 9.11801 7.5254 9.71377 7.0699C10.3095 6.61441 10.7388 5.97552 10.9355 5.25181H21.9925C22.2355 5.25181 22.4687 5.15525 22.6405 4.98338C22.8124 4.8115 22.909 4.57838 22.909 4.33531C22.909 4.09224 22.8124 3.85913 22.6405 3.68725C22.4687 3.51537 22.2355 3.41881 21.9925 3.41881H10.9355C10.7388 2.69511 10.3095 2.05622 9.71377 1.60072C9.11801 1.14523 8.38891 0.898437 7.63897 0.898438C6.88903 0.898437 6.15993 1.14523 5.56417 1.60072C4.96841 2.05622 4.53909 2.69511 4.34247 3.41881H1.83447C1.5914 3.41881 1.35828 3.51537 1.18641 3.68725C1.01453 3.85913 0.917969 4.09224 0.917969 4.33531C0.917969 4.57838 1.01453 4.8115 1.18641 4.98338C1.35828 5.15525 1.5914 5.25181 1.83447 5.25181Z" fill="#0C0C3D"/>
<path d="M21.9925 10.9779H19.4925C19.2962 10.254 18.8671 9.61487 18.2714 9.15916C17.6757 8.70346 16.9465 8.45654 16.1965 8.45654C15.4464 8.45654 14.7173 8.70346 14.1216 9.15916C13.5259 9.61487 13.0967 10.254 12.9005 10.9779H1.83447C1.5914 10.9779 1.35828 11.0744 1.18641 11.2463C1.01453 11.4182 0.917969 11.6513 0.917969 11.8944C0.917969 12.1375 1.01453 12.3706 1.18641 12.5424C1.35828 12.7143 1.5914 12.8109 1.83447 12.8109H12.8925C13.0887 13.5348 13.5179 14.1739 14.1136 14.6296C14.7093 15.0853 15.4384 15.3322 16.1885 15.3322C16.9385 15.3322 17.6677 15.0853 18.2634 14.6296C18.8591 14.1739 19.2882 13.5348 19.4845 12.8109H21.9925C22.2355 12.8109 22.4687 12.7143 22.6405 12.5424C22.8124 12.3706 22.909 12.1375 22.909 11.8944C22.909 11.6513 22.8124 11.4182 22.6405 11.2463C22.4687 11.0744 22.2355 10.9779 21.9925 10.9779Z" fill="#0C0C3D"/>
<path d="M21.9925 18.5387H10.9355C10.7388 17.815 10.3095 17.1761 9.71377 16.7206C9.11801 16.2651 8.38891 16.0183 7.63897 16.0183C6.88903 16.0183 6.15993 16.2651 5.56417 16.7206C4.96841 17.1761 4.53909 17.815 4.34247 18.5387H1.83447C1.5914 18.5387 1.35828 18.6353 1.18641 18.8071C1.01453 18.979 0.917969 19.2121 0.917969 19.4552C0.917969 19.6983 1.01453 19.9314 1.18641 20.1033C1.35828 20.2751 1.5914 20.3717 1.83447 20.3717H4.34247C4.53909 21.0954 4.96841 21.7343 5.56417 22.1898C6.15993 22.6453 6.88903 22.8921 7.63897 22.8921C8.38891 22.8921 9.11801 22.6453 9.71377 22.1898C10.3095 21.7343 10.7388 21.0954 10.9355 20.3717H21.9925C22.2355 20.3717 22.4687 20.2751 22.6405 20.1033C22.8124 19.9314 22.909 19.6983 22.909 19.4552C22.909 19.2121 22.8124 18.979 22.6405 18.8071C22.4687 18.6353 22.2355 18.5387 21.9925 18.5387Z" fill="#0C0C3D"/>
</svg>
